HIERARCHY
ROOT hip
{
  OFFSET 0 0 0
  CHANNELS 6 Xposition Yposition Zposition Zrotation Yrotation Xrotation
  JOINT abdomen
  {
    OFFSET 0 20.6881 -0.73152
    CHANNELS 3 Zrotation Xrotation Yrotation
    JOINT chest
    {
      OFFSET 0 11.7043 -0.48768
      CHANNELS 3 Zrotation Xrotation Yrotation
      JOINT neck
      {
        OFFSET 0 22.1894 -2.19456
        CHANNELS 3 Zrotation Xrotation Yrotation
        JOINT head
        {
          OFFSET -0.24384 7.07133 1.2192
          CHANNELS 3 Zrotation Xrotation Yrotation
          JOINT leftEye
          {
            OFFSET 4.14528 8.04674 8.04672
            CHANNELS 3 Zrotation Xrotation Yrotation
            End Site
            {
              OFFSET 1 0 0
            }
          }
          JOINT rightEye
          {
            OFFSET -3.6576 8.04674 8.04672
            CHANNELS 3 Zrotation Xrotation Yrotation
            End Site
            {
              OFFSET 1 0 0
            }
          }
        }
      }
      JOINT rCollar
      {
        OFFSET -2.68224 19.2634 -4.8768
        CHANNELS 3 Zrotation Xrotation Yrotation
        JOINT rShldr
        {
          OFFSET -8.77824 -1.95073 1.46304
          CHANNELS 3 Zrotation Xrotation Yrotation
          JOINT rForeArm
          {
            OFFSET -28.1742 -1.7115 0.48768
            CHANNELS 3 Zrotation Xrotation Yrotation
            JOINT rHand
            {
              OFFSET -22.5879 0.773209 7.07136
              CHANNELS 3 Zrotation Xrotation Yrotation
              JOINT rThumb1
              {
                OFFSET -1.2192 -0.487915 3.41376
                CHANNELS 3 Zrotation Xrotation Yrotation
                JOINT rThumb2
                {
                  OFFSET -3.37035 -0.52449 3.41376
                  CHANNELS 3 Zrotation Xrotation Yrotation
                  End Site
                  {
                    OFFSET -1.78271 -1.18214 1.43049
                  }
                }
              }
              JOINT rIndex1
              {
                OFFSET -7.75947 0.938293 5.60832
                CHANNELS 3 Zrotation Xrotation Yrotation
                JOINT rIndex2
                {
                  OFFSET -2.54057 -0.884171 1.56538
                  CHANNELS 3 Zrotation Xrotation Yrotation
                  End Site
                  {
                    OFFSET -1.62519 -0.234802 1.16502
                  }
                }
              }
              JOINT rMid1
              {
                OFFSET -8.24714 1.18213 3.41376
                CHANNELS 3 Zrotation Xrotation Yrotation
                JOINT rMid2
                {
                  OFFSET -3.10165 -0.590103 1.0647
                  CHANNELS 3 Zrotation Xrotation Yrotation
                  End Site
                  {
                    OFFSET -2.48547 -0.328903 0.83742
                  }
                }
              }
              JOINT rRing1
              {
                OFFSET -8.82822 0.546677 1.51678
                CHANNELS 3 Zrotation Xrotation Yrotation
                JOINT rRing2
                {
                  OFFSET -2.60934 -0.819778 -0.0198488
                  CHANNELS 3 Zrotation Xrotation Yrotation
                  End Site
                  {
                    OFFSET -2.33842 -0.294052 0.168128
                  }
                }
              }
              JOINT rPinky1
              {
                OFFSET -8.27202 -0.0477905 -0.4584
                CHANNELS 3 Zrotation Xrotation Yrotation
                JOINT rPinky2
                {
                  OFFSET -1.82734 -0.647385 -0.700984
                  CHANNELS 3 Zrotation Xrotation Yrotation
                  End Site
                  {
                    OFFSET -1.69225 -0.51767 -0.607171
                  }
                }
              }
            }
          }
        }
      }
      JOINT lCollar
      {
        OFFSET 2.68224 19.2634 -4.8768
        CHANNELS 3 Zrotation Xrotation Yrotation
        JOINT lShldr
        {
          OFFSET 8.77824 -1.95073 1.46304
          CHANNELS 3 Zrotation Xrotation Yrotation
          JOINT lForeArm
          {
            OFFSET 28.1742 -1.7115 0.48768
            CHANNELS 3 Zrotation Xrotation Yrotation
            JOINT lHand
            {
              OFFSET 22.5879 0.773209 7.07136
              CHANNELS 3 Zrotation Xrotation Yrotation
              JOINT lThumb1
              {
                OFFSET 1.2192 -0.487915 3.41376
                CHANNELS 3 Zrotation Xrotation Yrotation
                JOINT lThumb2
                {
                  OFFSET 3.37035 -0.52449 3.41376
                  CHANNELS 3 Zrotation Xrotation Yrotation
                  End Site
                  {
                    OFFSET 1.78271 -1.18214 1.43049
                  }
                }
              }
              JOINT lIndex1
              {
                OFFSET 7.75947 0.938293 5.60832
                CHANNELS 3 Zrotation Xrotation Yrotation
                JOINT lIndex2
                {
                  OFFSET 2.54057 -0.884171 1.56538
                  CHANNELS 3 Zrotation Xrotation Yrotation
                  End Site
                  {
                    OFFSET 1.62519 -0.234802 1.16502
                  }
                }
              }
              JOINT lMid1
              {
                OFFSET 8.24714 1.18213 3.41376
                CHANNELS 3 Zrotation Xrotation Yrotation
                JOINT lMid2
                {
                  OFFSET 3.10165 -0.590103 1.0647
                  CHANNELS 3 Zrotation Xrotation Yrotation
                  End Site
                  {
                    OFFSET 2.48547 -0.328903 0.83742
                  }
                }
              }
              JOINT lRing1
              {
                OFFSET 8.82822 0.546677 1.51678
                CHANNELS 3 Zrotation Xrotation Yrotation
                JOINT lRing2
                {
                  OFFSET 2.60934 -0.819778 -0.0198488
                  CHANNELS 3 Zrotation Xrotation Yrotation
                  End Site
                  {
                    OFFSET 2.33842 -0.294052 0.168128
                  }
                }
              }
              JOINT lPinky1
              {
                OFFSET 8.27202 -0.0477905 -0.4584
                CHANNELS 3 Zrotation Xrotation Yrotation
                JOINT lPinky2
                {
                  OFFSET 1.82734 -0.647385 -0.700984
                  CHANNELS 3 Zrotation Xrotation Yrotation
                  End Site
                  {
                    OFFSET 1.69225 -0.51767 -0.607171
                  }
                }
              }
            }
          }
        }
      }
    }
  }
  JOINT rButtock
  {
    OFFSET -8.77824 4.35084 1.2192
    CHANNELS 3 Zrotation Xrotation Yrotation
    JOINT rThigh
    {
      OFFSET 0 -1.70687 -2.19456
      CHANNELS 3 Zrotation Xrotation Yrotation
      JOINT rShin
      {
        OFFSET 0 -36.8199 0.73152
        CHANNELS 3 Zrotation Xrotation Yrotation
        JOINT rFoot
        {
          OFFSET 0.73152 -45.1104 -5.12064
          CHANNELS 3 Zrotation Xrotation Yrotation
          End Site
          {
            OFFSET -1.1221 -3.69964 12.103
          }
        }
      }
    }
  }
  JOINT lButtock
  {
    OFFSET 8.77824 4.35084 1.2192
    CHANNELS 3 Zrotation Xrotation Yrotation
    JOINT lThigh
    {
      OFFSET 0 -1.70687 -2.19456
      CHANNELS 3 Zrotation Xrotation Yrotation
      JOINT lShin
      {
        OFFSET 0 -36.8199 0.73152
        CHANNELS 3 Zrotation Xrotation Yrotation
        JOINT lFoot
        {
          OFFSET -0.73152 -45.1104 -5.12064
          CHANNELS 3 Zrotation Xrotation Yrotation
          End Site
          {
            OFFSET 1.1221 -3.69964 12.103
          }
        }
      }
    }
  }
}
MOTION
Frames:	4
Frame Time:	0.00833333
9.68529 80.0176 173.433 -163.756 -86.8643 180.565 -4.28628 -30.8677 -5.82752 3.7187 5.43477 -2.15323 -2.43948 0.589174 -7.20976 13.505 0.000996196 -14.6559 -0.0 0.0 0.0 -0.0 0.0 0.0 2.63966e-14 1.65566e-13 -8.14023e-14 75.0929 21.369 -5.81103 -12.6451 -5.91136 22.866 -0.445909 -18.7106 -2.72708 -1.65938e-09 1.51206e-09 -3.0858e-09 -2.82494e-09 2.63114e-09 -5.36112e-09 -1.65937e-09 1.51206e-09 -3.08582e-09 7.73091 5.47488 0.417314 -1.65938e-09 1.51205e-09 -3.08579e-09 2.90554 0.965183 0.102902 -1.65937e-09 1.51206e-09 -3.0858e-09 10.2786 0.731801 0.0259123 -1.65938e-09 1.51206e-09 -3.08579e-09 2.22167 -0.733487 -0.20892 2.63762e-14 1.65572e-13 -8.15359e-14 -87.0398 51.2448 10.6274 15.5425 -8.26892 -28.7127 4.16829 -48.6847 9.1995 1.21233e-09 9.6402e-11 3.5094e-09 1.95198e-09 2.33686e-10 6.09705e-09 1.21232e-09 9.64058e-11 3.50941e-09 -7.73091 5.47488 -0.417314 1.21233e-09 9.64047e-11 3.50941e-09 -2.90554 0.965183 -0.102902 1.21232e-09 9.64042e-11 3.50941e-09 -10.2786 0.731801 -0.0259123 1.21233e-09 9.64043e-11 3.50939e-09 -2.22167 -0.733487 0.20892 -2.03217e-16 0.0 -3.88251e-19 8.34663 -25.2105 19.2376 -0.138997 22.1189 0.716991 -4.62872 -8.4533 -13.21 2.03217e-16 0.0 3.88251e-19 17.3692 -10.781 0.455265 -0.0263077 13.9858 -0.461098 0.851829 -3.20485 -0.0209505
9.69561 80.0193 173.437 -163.36 -86.9084 180.178 -4.32938 -30.8487 -5.82861 3.74337 5.44816 -2.15043 -2.2357 0.382392 -7.0089 13.2873 0.206991 -14.3203 -0.0 0.0 0.0 -0.0 0.0 0.0 -6.6998e-15 3.5072e-13 -7.42461e-14 75.0478 22.4527 -5.79151 -12.668 -5.9282 22.9106 -0.375087 -17.2101 -2.4941 4.44325e-11 4.55493e-10 -1.02694e-09 9.21816e-11 7.8678e-10 -1.77799e-09 4.4441e-11 4.55497e-10 -1.02695e-09 7.73091 5.47488 0.417314 4.44308e-11 4.55486e-10 -1.02691e-09 2.90554 0.965183 0.102902 4.44359e-11 4.55495e-10 -1.02693e-09 10.2786 0.731801 0.0259123 4.44326e-11 4.55496e-10 -1.02693e-09 2.22167 -0.733487 -0.20892 -6.70546e-15 3.50728e-13 -7.43847e-14 -87.1276 52.689 10.7191 15.5564 -8.28143 -28.7416 3.90919 -47.5945 8.85135 8.59194e-10 5.34298e-11 8.69765e-10 1.44509e-09 1.18892e-10 1.53136e-09 8.59192e-10 5.34344e-11 8.69769e-10 -7.73091 5.47488 -0.417314 8.59195e-10 5.34333e-11 8.69768e-10 -2.90554 0.965183 -0.102902 8.59187e-10 5.34321e-11 8.69766e-10 -10.2786 0.731801 -0.0259123 8.59199e-10 5.34311e-11 8.69751e-10 -2.22167 -0.733487 0.20892 -2.03217e-16 0.0 -3.88251e-19 8.34672 -25.2208 19.2011 -0.138868 22.1082 0.716736 -4.63015 -8.44965 -13.224 2.03217e-16 0.0 3.88251e-19 17.3708 -10.7785 0.454972 -0.0263456 13.9806 -0.461242 0.851994 -3.20221 -0.0210275
9.70594 80.0214 173.44 -162.888 -86.9479 179.716 -4.36287 -30.8321 -5.81688 3.75994 5.46434 -2.14437 -2.03795 0.173866 -6.80683 13.0738 0.418474 -13.9817 -0.0 0.0 0.0 -0.0 0.0 0.0 -2.46506e-14 3.81414e-13 -5.55603e-14 75.0167 23.5122 -5.75882 -12.6769 -5.93477 22.9279 -0.318348 -15.8493 -2.28669 1.0323e-09 -2.8496e-10 3.77214e-10 1.78101e-09 -5.04086e-10 6.63825e-10 1.03231e-09 -2.84958e-10 3.77207e-10 7.73091 5.47488 0.417314 1.0323e-09 -2.8497e-10 3.77239e-10 2.90554 0.965183 0.102902 1.0323e-09 -2.8496e-10 3.77216e-10 10.2786 0.731801 0.0259123 1.0323e-09 -2.84958e-10 3.7722e-10 2.22167 -0.733487 -0.20892 -2.46496e-14 3.81423e-13 -5.57094e-14 -87.1958 54.0681 10.7924 15.5624 -8.28688 -28.7541 3.67246 -46.5361 8.52762 5.32992e-10 2.46795e-11 -8.45573e-10 9.48748e-10 4.21742e-11 -1.43887e-09 5.32991e-10 2.46843e-11 -8.4557e-10 -7.73091 5.47488 -0.417314 5.32993e-10 2.46832e-11 -8.4557e-10 -2.90554 0.965183 -0.102902 5.32983e-10 2.46816e-11 -8.45573e-10 -10.2786 0.731801 -0.0259123 5.32997e-10 2.46803e-11 -8.45589e-10 -2.22167 -0.733487 0.20892 -2.03217e-16 0.0 -3.88251e-19 8.35549 -25.2265 19.1788 -0.138791 22.0917 0.716322 -4.63152 -8.44251 -13.2421 2.03217e-16 0.0 3.88251e-19 17.373 -10.7749 0.454557 -0.0263724 13.9732 -0.461216 0.852211 -3.1984 -0.0211366
9.71601 80.0237 173.442 -162.345 -86.9804 179.185 -4.38347 -30.8192 -5.78759 3.7681 5.48351 -2.13397 -1.85013 -0.0396402 -6.60468 12.8695 0.639353 -13.6421 -0.0 0.0 0.0 -0.0 0.0 0.0 -1.86915e-14 1.40219e-13 -1.33943e-14 74.9991 24.5625 -5.71029 -12.6721 -5.93118 22.9187 -0.272285 -14.66 -2.10747 9.26042e-10 -5.96519e-10 8.20981e-10 1.59198e-09 -1.04298e-09 1.43103e-09 9.26052e-10 -5.96518e-10 8.20974e-10 7.73091 5.47488 0.417314 9.26041e-10 -5.96527e-10 8.21001e-10 2.90554 0.965183 0.102902 9.26047e-10 -5.96519e-10 8.20981e-10 10.2786 0.731801 0.0259123 9.26041e-10 -5.96517e-10 8.20984e-10 2.22167 -0.733487 -0.20892 -1.86976e-14 1.40228e-13 -1.35624e-14 -87.2378 55.3929 10.8395 15.5597 -8.28442 -28.7485 3.45294 -45.5011 8.2227 1.82711e-10 8.60379e-12 -1.16258e-09 3.56941e-10 6.90561e-12 -1.99735e-09 1.8271e-10 8.60767e-12 -1.16258e-09 -7.73091 5.47488 -0.417314 1.82712e-10 8.60686e-12 -1.16258e-09 -2.90554 0.965183 -0.102902 1.82704e-10 8.60534e-12 -1.16258e-09 -10.2786 0.731801 -0.0259123 1.82716e-10 8.60489e-12 -1.1626e-09 -2.22167 -0.733487 0.20892 -2.03217e-16 0.0 -3.88251e-19 8.37562 -25.2268 19.1741 -0.138795 22.0671 0.715723 -4.63275 -8.4308 -13.2653 2.03217e-16 0.0 3.88251e-19 17.3761 -10.7696 0.453974 -0.0263863 13.9625 -0.460976 0.852499 -3.19296 -0.0212903
